<svg height="100%" width="100%" id="svg" viewBox="0 0 1440 600" xmlns="http://www.w3.org/2000/svg" class="transition duration-300 ease-in-out delay-150"><defs><linearGradient id="gradient"><stop offset="5%" stop-color="#002bdc88"></stop><stop offset="95%" stop-color="#32ded488"></stop></linearGradient></defs><path d="M 0,600 C 0,600 0,200 0,200 C 53.75627081021089,224.34055987174744 107.51254162042179,248.6811197434949 167,260 C 226.48745837957821,271.3188802565051 291.7061043285238,269.6160808977679 349,255 C 406.2938956714762,240.38391910223208 455.66304106548284,212.8545566654335 497,218 C 538.3369589345172,223.1454433345665 571.6417314095451,260.9656924404982 625,250 C 678.3582685904549,239.0343075595018 751.7700332963374,179.28267357257369 807,174 C 862.2299667036626,168.71732642742631 899.2781354051053,217.90361326920706 951,229 C 1002.7218645948947,240.09638673079294 1069.117425083241,213.10287335059812 1128,211 C 1186.882574916759,208.89712664940188 1238.2521642619313,231.68489332840053 1289,234 C 1339.7478357380687,236.31510667159947 1389.8739178690344,218.15755333579972 1440,200 C 1440,200 1440,600 1440,600 Z" stroke="none" stroke-width="0" fill="url(#gradient)" class="transition-all duration-300 ease-in-out delay-150" transform="rotate(-180 720 300)"></path><defs><linearGradient id="gradient"><stop offset="5%" stop-color="#002bdcff"></stop><stop offset="95%" stop-color="#32ded4ff"></stop></linearGradient></defs><path d="M 0,600 C 0,600 0,400 0,400 C 65.02261684548034,367.6221482303613 130.04523369096069,335.24429646072264 179,353 C 227.95476630903931,370.75570353927736 260.84168208163766,438.64496238747074 314,447 C 367.15831791836234,455.35503761252926 440.5880379824887,404.1758539893945 504,380 C 567.4119620175113,355.8241460106055 620.8061659884079,358.65162165495127 660,371 C 699.1938340115921,383.34837834504873 724.1872980638798,405.21765939080035 773,402 C 821.8127019361202,398.78234060919965 894.4446417560736,370.4777407818474 959,345 C 1023.5553582439264,319.5222592181526 1080.0341349118262,296.8713774818103 1130,326 C 1179.9658650881738,355.1286225181897 1223.4188185966211,436.0367492909113 1274,457 C 1324.5811814033789,477.9632507090887 1382.2905907016893,438.98162535454435 1440,400 C 1440,400 1440,600 1440,600 Z" stroke="none" stroke-width="0" fill="url(#gradient)" class="transition-all duration-300 ease-in-out delay-150" transform="rotate(-180 720 300)"></path></svg>